<svg width="19" height="14" viewBox="0 0 19 14" fill="none" xmlns="http://www.w3.org/2000/svg">
<path d="M0.243825 7.26673L6.07717 13.1001C6.23433 13.2519 6.44484 13.3359 6.66333 13.334C6.88183 13.3321 7.09084 13.2444 7.24535 13.0899C7.39985 12.9354 7.4875 12.7264 7.48939 12.5079C7.49129 12.2894 7.4073 12.0789 7.2555 11.9217L2.84466 7.5109L17.4997 7.5109C17.7207 7.5109 17.9326 7.4231 18.0889 7.26682C18.2452 7.11054 18.333 6.89858 18.333 6.67757C18.333 6.45655 18.2452 6.24459 18.0889 6.08831C17.9326 5.93203 17.7207 5.84423 17.4997 5.84423L2.84466 5.84423L7.2555 1.43341C7.33509 1.35653 7.39858 1.26458 7.44225 1.16291C7.48592 1.06124 7.50891 0.95189 7.50987 0.841241C7.51084 0.730592 7.48975 0.62086 7.44785 0.518446C7.40595 0.416033 7.34407 0.322989 7.26583 0.244745C7.18758 0.166501 7.09454 0.104623 6.99213 0.0627222C6.88971 0.0208216 6.77998 -0.000263158 6.66933 0.000698156C6.55868 0.00166042 6.44933 0.0246497 6.34766 0.0683232C6.24599 0.111998 6.15404 0.175482 6.07716 0.255074L0.243825 6.0884C0.0876001 6.24467 -0.000162726 6.4566 -0.000162707 6.67757C-0.000162687 6.89854 0.0876002 7.11046 0.243825 7.26673Z" fill="#161616"/>
</svg>
