<svg width="23" height="25" viewBox="0 0 23 25" fill="none" xmlns="http://www.w3.org/2000/svg">
<path fill-rule="evenodd" clip-rule="evenodd" d="M16.1651 24.0007H6.51355C2.96831 24.0007 0.248523 22.7201 1.02107 17.5663L1.92061 10.5816C2.39684 8.01002 4.03717 7.02582 5.47644 7.02582H17.2445C18.705 7.02582 20.25 8.0841 20.8004 10.5816L21.6999 17.5663C22.356 22.1381 19.7103 24.0007 16.1651 24.0007Z" stroke="black" stroke-width="1.6" stroke-linecap="round" stroke-linejoin="round"/>
<path d="M16.3238 6.77211C16.3238 4.0134 14.0875 1.77702 11.3288 1.77702V1.77702C10.0003 1.77139 8.72435 2.29517 7.783 3.23255C6.84166 4.16992 6.31249 5.44366 6.3125 6.77211H6.3125" stroke="black" stroke-width="1.6" stroke-linecap="round" stroke-linejoin="round"/>
<path d="M14.7584 11.9781H14.7054" stroke="black" stroke-width="1.6" stroke-linecap="round" stroke-linejoin="round"/>
<path d="M8.01654 11.9788H7.96362" stroke="black" stroke-width="1.6" stroke-linecap="round" stroke-linejoin="round"/>
</svg>
