<svg width="20" height="24" viewBox="0 0 20 24" fill="none" xmlns="http://www.w3.org/2000/svg">
<path d="M16.7525 12.1581C16.6716 12.0753 16.5749 12.0095 16.4682 11.9644C16.3615 11.9194 16.2469 11.896 16.1311 11.8957C16.0153 11.8954 15.9005 11.9181 15.7936 11.9626C15.6867 12.0071 15.5896 12.0724 15.5082 12.1547C15.4268 12.2371 15.3625 12.3348 15.3192 12.4422C15.2759 12.5496 15.2545 12.6646 15.2561 12.7804C15.2577 12.8962 15.2823 13.0106 15.3285 13.1167C15.3747 13.2229 15.4416 13.3189 15.5253 13.3989C16.2657 14.1275 16.8532 14.9967 17.2532 15.9554C17.6531 16.9141 17.8576 17.943 17.8545 18.9818C17.8545 20.0492 14.7949 21.5999 10 21.5999C5.20519 21.5999 2.14551 20.0484 2.14551 18.98C2.14257 17.9484 2.34429 16.9264 2.739 15.9732C3.1337 15.0201 3.71354 14.1547 4.44496 13.4271C4.52769 13.3465 4.59358 13.2502 4.63881 13.1439C4.68403 13.0376 4.7077 12.9233 4.70843 12.8078C4.70916 12.6922 4.68695 12.5777 4.64307 12.4708C4.59919 12.364 4.53453 12.2668 4.45283 12.1851C4.37114 12.1035 4.27403 12.0388 4.16715 11.9949C4.06026 11.951 3.94573 11.9288 3.83019 11.9296C3.71466 11.9303 3.60042 11.9539 3.4941 11.9992C3.38778 12.0444 3.2915 12.1103 3.21085 12.193C2.31667 13.0825 1.60783 14.1405 1.12535 15.3058C0.642879 16.4711 0.396358 17.7205 0.400066 18.9818C0.400066 21.816 5.34579 23.3454 10 23.3454C14.6543 23.3454 19.6 21.816 19.6 18.9818C19.6039 17.712 19.354 16.4543 18.865 15.2825C18.376 14.1107 17.6578 13.0485 16.7525 12.1581V12.1581Z" fill="black"/>
<path d="M10.0001 12.8732C11.2084 12.8732 12.3895 12.5149 13.3941 11.8437C14.3988 11.1724 15.1818 10.2183 15.6442 9.10199C16.1065 7.98571 16.2275 6.75738 15.9918 5.57234C15.7561 4.38729 15.1742 3.29876 14.3199 2.4444C13.4655 1.59003 12.377 1.0082 11.1919 0.772477C10.0069 0.536758 8.77856 0.657737 7.66228 1.12012C6.54599 1.5825 5.59189 2.36551 4.92061 3.37014C4.24934 4.37477 3.89105 5.5559 3.89105 6.76415C3.89292 8.3838 4.53716 9.93658 5.68242 11.0818C6.82769 12.2271 8.38047 12.8713 10.0001 12.8732ZM10.0001 2.40054C10.8632 2.40054 11.7068 2.65646 12.4244 3.13594C13.142 3.61542 13.7013 4.29692 14.0316 5.09427C14.3618 5.89162 14.4483 6.76899 14.2799 7.61545C14.1115 8.46191 13.6959 9.23943 13.0857 9.8497C12.4754 10.46 11.6979 10.8756 10.8514 11.0439C10.005 11.2123 9.12758 11.1259 8.33023 10.7956C7.53289 10.4653 6.85138 9.90604 6.3719 9.18845C5.89242 8.47086 5.6365 7.6272 5.6365 6.76415C5.63786 5.60727 6.09804 4.49816 6.91608 3.68012C7.73412 2.86208 8.84323 2.4019 10.0001 2.40054V2.40054Z" fill="black"/>
</svg>
